HIERARCHY
ROOT Hips
{
	OFFSET -0.001795 -0.223333 0.028219
	CHANNELS 6 Xposition Yposition Zposition Zrotation Yrotation Xrotation 
	JOINT LeftUpLeg
	{
		OFFSET 0.069520 -0.091406 -0.006815
		CHANNELS 3 Zrotation Yrotation Xrotation
		JOINT LeftLeg
		{
			OFFSET 0.034277 -0.375199 -0.004496
			CHANNELS 3 Zrotation Yrotation Xrotation
			JOINT LeftFoot
			{
				OFFSET -0.013596 -0.397961 -0.043693
				CHANNELS 3 Zrotation Yrotation Xrotation
				JOINT LeftToe
				{
					OFFSET 0.026358 -0.055791 0.119288
					CHANNELS 3 Zrotation Yrotation Xrotation
					End Site
					{
						OFFSET 0.000000 0.000000 0.000000
					}
				}
			}
		}
	}
	JOINT RightUpLeg
	{
		OFFSET -0.067670 -0.090522 -0.004320
		CHANNELS 3 Zrotation Yrotation Xrotation
		JOINT RightLeg
		{
			OFFSET -0.038290 -0.382569 -0.008850
			CHANNELS 3 Zrotation Yrotation Xrotation
			JOINT RightFoot
			{
				OFFSET 0.015774 -0.398415 -0.042312
				CHANNELS 3 Zrotation Yrotation Xrotation
				JOINT RightToe
				{
					OFFSET -0.025372 -0.048144 0.123348
					CHANNELS 3 Zrotation Yrotation Xrotation
					End Site
					{
						OFFSET 0.000000 0.000000 0.000000
					}
				}
			}
		}
	}
	JOINT Spine
	{
		OFFSET -0.002533 0.108963 -0.026696
		CHANNELS 3 Zrotation Yrotation Xrotation
		JOINT Spine1
		{
			OFFSET 0.005487 0.135180 0.001092
			CHANNELS 3 Zrotation Yrotation Xrotation
			JOINT Spine2
			{
				OFFSET 0.001457 0.052922 0.025425
				CHANNELS 3 Zrotation Yrotation Xrotation
				JOINT Neck
				{
					OFFSET -0.002778 0.213870 -0.042857
					CHANNELS 3 Zrotation Yrotation Xrotation
					JOINT Head
					{
						OFFSET 0.005152 0.064970 0.051349
						CHANNELS 3 Zrotation Yrotation Xrotation
						End Site
						{
							OFFSET 0.000000 0.000000 0.000000
						}
					}
				}
				JOINT LeftShoulder
				{
					OFFSET 0.078845 0.121749 -0.034090
					CHANNELS 3 Zrotation Yrotation Xrotation
					JOINT LeftArm
					{
						OFFSET 0.090977 0.030469 -0.008868
						CHANNELS 3 Zrotation Yrotation Xrotation
						JOINT LeftForeArm
						{
							OFFSET 0.259612 -0.012772 -0.027456
							CHANNELS 3 Zrotation Yrotation Xrotation
							JOINT LeftHand
							{
								OFFSET 0.249234 0.008986 -0.001171
								CHANNELS 3 Zrotation Yrotation Xrotation
								End Site
								{
									OFFSET 0.000000 0.000000 0.000000
								}
							}
						}
					}
				}
				JOINT RightShoulder
				{
					OFFSET -0.081759 0.118833 -0.038615
					CHANNELS 3 Zrotation Yrotation Xrotation
					JOINT RightArm
					{
						OFFSET -0.096012 0.032551 -0.009143
						CHANNELS 3 Zrotation Yrotation Xrotation
						JOINT RightForeArm
						{
							OFFSET -0.253742 -0.013329 -0.021401
							CHANNELS 3 Zrotation Yrotation Xrotation
							JOINT RightHand
							{
								OFFSET -0.255298 0.007772 -0.005559
								CHANNELS 3 Zrotation Yrotation Xrotation
								End Site
								{
									OFFSET 0.000000 0.000000 0.000000
								}
							}
						}
					}
				}
			}
		}
	}
}
MOTION
Frames: 16
Frame Time: 0.050000
-0.008112 0.942226 -0.025223 -0.238891 -3.099662 5.746720 0.668336 -0.552503 -6.298116 5.127779 -0.267877 -3.832861 -7.242784 -8.814735 10.573866 0.000000 0.000000 0.000000 -0.639569 0.912866 -9.316011 -0.100674 0.220305 4.870730 -3.773721 -11.562732 7.709027 0.000000 0.000000 0.000000 5.595592 -0.299911 1.637666 0.208795 -0.130135 2.114333 1.182200 2.554904 1.262142 6.934650 -3.584601 -11.384229 0.000000 0.000000 0.000000 -23.526367 -5.277839 0.449147 -31.343711 -9.500513 -1.191724 -129.342164 -63.898680 110.572969 0.000000 0.000000 0.000000 16.000407 9.227021 3.293667 11.837782 17.981134 -0.176933 124.956502 84.469652 124.325394 0.000000 0.000000 0.000000 
-0.008046 0.941740 -0.024755 -0.282733 -3.170897 5.802500 0.735718 -0.538570 -6.156505 5.082013 -0.242271 -4.112866 -7.185939 -8.787326 10.459167 0.000000 0.000000 0.000000 -0.737984 0.931744 -9.544244 0.142343 0.201243 5.216723 -3.785024 -11.549066 7.520488 0.000000 0.000000 0.000000 5.759829 -0.305900 1.619541 0.430875 -0.234982 1.913007 0.948769 2.060926 1.132407 7.123627 -3.668709 -11.809023 0.000000 0.000000 0.000000 -23.354354 -4.718975 0.281404 -31.961617 -8.858346 -1.393651 -126.777536 -63.597727 107.198501 0.000000 0.000000 0.000000 16.093897 8.046425 2.562096 12.894905 17.257629 -0.113972 124.868438 81.764984 121.657670 0.000000 0.000000 0.000000 
-0.007929 0.941267 -0.024185 -0.208262 -3.388958 5.873667 0.736575 -0.521695 -5.950437 4.902558 -0.199843 -4.499561 -7.082239 -8.656490 10.411203 0.000000 0.000000 0.000000 -0.908962 0.943045 -9.724469 0.255986 0.194644 5.420476 -3.737192 -11.413679 7.285162 0.000000 0.000000 0.000000 5.898286 -0.293181 1.416128 0.533532 -0.281474 1.831765 0.736079 1.605473 1.228627 7.216564 -3.779137 -11.729812 0.000000 0.000000 0.000000 -23.575010 -4.214593 0.141015 -32.495600 -8.136256 -1.635408 -125.172581 -63.125842 104.915503 0.000000 0.000000 0.000000 16.621246 7.262722 2.019176 13.867442 16.756581 -0.056906 122.767380 80.039082 117.547221 0.000000 0.000000 0.000000 
-0.007791 0.940678 -0.023586 -0.194454 -3.619999 5.998383 0.776733 -0.508047 -5.796970 4.770401 -0.161587 -4.882282 -6.954147 -8.515437 10.304289 0.000000 0.000000 0.000000 -1.072785 0.950033 -9.855435 0.468146 0.165797 5.434819 -3.674664 -11.247577 7.056371 0.000000 0.000000 0.000000 5.941336 -0.284527 1.282427 0.643871 -0.331479 1.745321 0.803368 1.446758 1.147928 7.149572 -3.695274 -12.109997 0.000000 0.000000 0.000000 -23.579138 -3.654273 -0.098586 -33.214535 -7.372985 -1.870327 -124.279157 -62.948405 103.748803 0.000000 0.000000 0.000000 17.008764 6.729302 1.650907 15.063164 16.792010 0.044579 118.523397 78.586103 111.348309 0.000000 0.000000 0.000000 
-0.007756 0.940276 -0.023079 -0.139048 -4.006700 5.945810 0.681929 -0.475670 -5.373084 4.789321 -0.126554 -5.373951 -6.779904 -8.267364 10.272635 0.000000 0.000000 0.000000 -1.141093 0.943741 -9.805899 0.428481 0.173501 5.431000 -3.540281 -10.938750 6.822791 0.000000 0.000000 0.000000 6.084511 -0.277687 1.176730 0.796714 -0.411377 2.163548 1.049271 1.649152 0.819554 7.298029 -3.810112 -11.937981 0.000000 0.000000 0.000000 -23.906856 -3.198872 -0.389615 -33.889724 -6.011869 -2.223499 -123.262285 -62.497804 101.979740 0.000000 0.000000 0.000000 18.047494 6.857457 1.651946 16.137542 16.851381 0.140530 119.408475 77.672870 111.391937 0.000000 0.000000 0.000000 
-0.007783 0.939720 -0.022721 -0.051710 -4.115999 5.925939 0.533116 -0.448220 -4.998371 4.873572 -0.086765 -5.944434 -6.748461 -8.219878 10.280207 0.000000 0.000000 0.000000 -1.271463 0.919813 -9.604526 0.478059 0.154325 5.126187 -3.516146 -10.837367 6.607284 0.000000 0.000000 0.000000 5.984968 -0.257083 0.998654 0.965776 -0.499096 2.424515 1.444173 1.699250 0.718099 7.331197 -3.750656 -12.486139 0.000000 0.000000 0.000000 -24.025247 -2.823486 -0.596283 -34.298398 -5.079054 -2.483641 -122.861963 -62.543554 101.566287 0.000000 0.000000 0.000000 18.796962 7.488743 1.933110 17.765090 17.567202 0.338076 117.242875 77.419663 108.701983 0.000000 0.000000 0.000000 
-0.007763 0.939509 -0.022567 0.080333 -4.124870 6.007964 0.486581 -0.438233 -4.864640 4.691981 -0.044266 -6.345905 -6.790398 -8.223499 10.413566 0.000000 0.000000 0.000000 -1.500755 0.900076 -9.481566 0.619332 0.119231 4.743224 -3.513382 -10.814034 6.545371 0.000000 0.000000 0.000000 6.034242 -0.243955 0.819848 1.185380 -0.619686 2.949464 1.737271 2.076687 0.123848 7.325115 -3.742286 -12.240047 0.000000 0.000000 0.000000 -23.947267 -2.515564 -0.899441 -34.519741 -3.796644 -2.751492 -122.272083 -62.810770 100.943196 0.000000 0.000000 0.000000 19.690647 7.759396 2.121434 19.616049 18.131838 0.552748 114.262181 77.162444 105.305521 0.000000 0.000000 0.000000 
-0.007703 0.939398 -0.022703 0.282039 -4.134479 5.842621 0.283637 -0.425414 -4.664183 4.644566 -0.035766 -6.424857 -6.814358 -8.239880 10.461285 0.000000 0.000000 0.000000 -1.598864 0.868911 -9.187232 0.397111 0.139764 4.505500 -3.518595 -10.795428 6.445061 0.000000 0.000000 0.000000 5.970403 -0.257240 1.017422 1.294226 -0.681748 3.245720 1.996752 2.424909 -0.172073 7.845958 -3.925977 -12.954106 0.000000 0.000000 0.000000 -24.171965 -2.373211 -1.108369 -34.586675 -2.731970 -2.980706 -120.698065 -63.234306 99.337803 0.000000 0.000000 0.000000 20.563077 8.556498 2.623492 21.436161 19.643857 0.904948 102.529737 78.463245 94.312428 0.000000 0.000000 0.000000 
-0.007652 0.939657 -0.023175 0.505070 -4.040149 5.743195 0.075902 -0.420823 -4.563581 4.575726 -0.023778 -6.526464 -6.928345 -8.306222 10.687893 0.000000 0.000000 0.000000 -1.754405 0.838715 -8.919369 0.247175 0.144818 4.157977 -3.539804 -10.849140 6.515340 0.000000 0.000000 0.000000 5.878622 -0.264920 1.153026 1.394857 -0.739474 3.452827 2.167976 2.856225 -0.345578 7.964261 -3.934825 -13.114468 0.000000 0.000000 0.000000 -24.016257 -2.824512 -0.979450 -35.182975 -2.441551 -3.050712 -119.316179 -63.984488 98.289352 0.000000 0.000000 0.000000 21.171304 9.826800 3.480620 22.557283 21.274986 1.230930 73.890189 80.599843 68.356569 0.000000 0.000000 0.000000 
-0.007755 0.940090 -0.024000 0.659157 -3.839225 5.607065 -0.036983 -0.416381 -4.491050 4.501955 -0.016503 -6.562870 -7.099006 -8.437469 10.953117 0.000000 0.000000 0.000000 -1.709627 0.809817 -8.596328 -0.091040 0.171919 3.777669 -3.588652 -10.979043 6.685591 0.000000 0.000000 0.000000 5.922134 -0.259944 1.106018 1.232904 -0.669750 3.813051 2.049892 3.583630 -0.564311 8.386789 -4.032158 -13.668699 0.000000 0.000000 0.000000 -24.369103 -3.568512 -0.864779 -34.892331 -2.209525 -2.986338 -117.449553 -64.806438 96.590984 0.000000 0.000000 0.000000 21.789855 11.317440 4.638997 22.982888 22.876624 1.465991 34.160398 79.322260 31.944571 0.000000 0.000000 0.000000 
-0.008116 0.940711 -0.025053 0.933570 -3.492435 5.418436 -0.211426 -0.412737 -4.418819 4.340067 -0.006125 -6.570720 -7.375852 -8.662971 11.344043 0.000000 0.000000 0.000000 -1.808399 0.783635 -8.358339 -0.357742 0.199921 3.651066 -3.712227 -11.253620 6.865324 0.000000 0.000000 0.000000 5.789793 -0.253840 1.120838 1.311391 -0.722416 4.027344 1.619059 4.462700 -0.823480 8.418192 -3.935552 -13.785579 0.000000 0.000000 0.000000 -24.246192 -4.307005 -0.820874 -34.966733 -3.095581 -2.628873 -114.895971 -66.076546 94.501350 0.000000 0.000000 0.000000 22.001879 12.504926 5.742800 22.959522 24.989722 1.711272 9.089767 74.289748 10.306125 0.000000 0.000000 0.000000 
-0.008771 0.941089 -0.026110 1.084536 -2.657506 5.122982 -0.115149 -0.402426 -4.339347 4.002932 0.008069 -6.478760 -7.867619 -9.243260 11.645082 0.000000 0.000000 0.000000 -1.923528 0.742255 -7.967903 -0.252142 0.182246 3.599040 -4.042893 -11.912247 7.043491 0.000000 0.000000 0.000000 5.695985 -0.259356 1.257496 1.414435 -0.791535 4.026733 1.126074 5.055216 -0.851750 8.914729 -4.129323 -13.932517 0.000000 0.000000 0.000000 -24.424923 -5.103309 -0.756683 -34.650564 -3.763946 -2.315438 -113.176939 -66.780699 92.837562 0.000000 0.000000 0.000000 22.114776 13.485922 6.729137 22.391864 26.565201 1.781499 -1.268471 68.759307 2.515902 0.000000 0.000000 0.000000 
-0.009665 0.941663 -0.026966 1.259665 -1.987122 4.713226 -0.096483 -0.395733 -4.279528 3.765870 -0.006637 -6.058612 -8.257973 -9.703172 11.873638 0.000000 0.000000 0.000000 -2.071376 0.704109 -7.619905 -0.125762 0.174388 3.834191 -4.311174 -12.445233 7.199494 0.000000 0.000000 0.000000 5.293577 -0.263826 1.546283 1.417548 -0.803294 3.931915 0.540244 5.856470 -0.874546 9.365055 -4.398589 -13.491508 0.000000 0.000000 0.000000 -24.460050 -5.977259 -0.692863 -34.573574 -4.537659 -1.974304 -110.970035 -67.272177 90.360516 0.000000 0.000000 0.000000 22.152766 14.003641 7.490294 22.121622 27.430575 1.766160 -5.340395 64.602508 0.025505 0.000000 0.000000 0.000000 
-0.010568 0.941705 -0.027333 1.334115 -1.068305 4.511589 0.180098 -0.373199 -4.092976 3.280469 0.037062 -6.265748 -8.801975 -10.339872 12.190279 0.000000 0.000000 0.000000 -2.294991 0.643108 -7.000890 0.356695 0.086237 3.297344 -4.660639 -13.122153 7.367646 0.000000 0.000000 0.000000 4.931901 -0.231781 1.347627 1.507553 -0.867996 3.964914 -0.041092 6.442843 -0.623525 10.085520 -4.784016 -13.435911 0.000000 0.000000 0.000000 -23.843977 -6.504075 -0.718291 -34.960399 -5.391723 -1.673659 -109.999807 -67.535256 89.005449 0.000000 0.000000 0.000000 21.624998 13.862223 7.760125 22.516204 27.719937 1.765309 -7.777293 62.208935 -1.173005 0.000000 0.000000 0.000000 
-0.011273 0.941704 -0.027225 1.280911 -0.707210 4.193630 0.182168 -0.338032 -3.708143 3.476598 0.036033 -6.399395 -9.000133 -10.611021 12.226717 0.000000 0.000000 0.000000 -2.225673 0.601560 -6.504471 0.476866 0.063520 3.137810 -4.791192 -13.364042 7.392604 0.000000 0.000000 0.000000 4.677428 -0.217165 1.337585 1.454659 -0.841490 3.797394 -0.462721 6.877407 -0.059656 10.493348 -5.069417 -13.171752 0.000000 0.000000 0.000000 -24.029606 -6.596112 -0.913220 -34.500672 -5.719852 -1.527564 -109.821687 -67.620855 88.648755 0.000000 0.000000 0.000000 21.444840 13.590939 7.827813 22.760044 27.036002 1.602733 -7.864548 62.618371 -1.084855 0.000000 0.000000 0.000000 
-0.011578 0.941716 -0.026826 1.257500 -0.212163 4.273173 0.425766 -0.320777 -3.545877 3.148326 0.087244 -6.921269 -9.332690 -10.933390 12.531810 0.000000 0.000000 0.000000 -2.392341 0.578056 -6.269996 0.919415 -0.009523 2.718363 -4.969772 -13.717827 7.545740 0.000000 0.000000 0.000000 4.338854 -0.168330 0.845175 1.657260 -0.952257 3.748910 -1.046534 7.235967 0.384327 10.799940 -5.188417 -13.329014 0.000000 0.000000 0.000000 -23.780313 -6.710567 -1.055240 -34.499919 -5.817794 -1.458489 -110.609372 -67.500639 89.035872 0.000000 0.000000 0.000000 21.075729 12.806821 7.558476 23.102825 25.906994 1.391946 -5.479345 65.180292 0.554276 0.000000 0.000000 0.000000 
